<svg width="73" height="41" viewBox="0 0 73 41" fill="none" xmlns="http://www.w3.org/2000/svg">
<path d="M12.3242 12.4008V28.7046C12.3242 29.648 13.3906 30.1967 14.1582 29.6484L19.0949 26.1222C19.9014 25.5461 20.9849 25.5461 21.7915 26.1222L26.7281 29.6484C27.4958 30.1967 28.5621 29.648 28.5621 28.7046V12.4008C28.5621 11.1196 27.5236 10.0811 26.2424 10.0811H14.6439C13.3628 10.0811 12.3242 11.1196 12.3242 12.4008Z" stroke="#898989" stroke-width="2.3197"/>
<path d="M43.8902 25.3493C42.1622 25.3493 41.0582 24.2693 41.0582 22.5773H41.9222C41.9222 23.8133 42.6782 24.5573 43.9022 24.5573C45.1982 24.5573 46.0382 23.6933 46.0382 22.4213C46.0382 21.2213 45.2582 20.2733 43.9022 20.2733C43.1102 20.2733 42.3902 20.6333 41.9222 21.1493L41.2382 20.9333L42.2702 16.6133H46.4222V17.4053H42.8942L42.2462 20.1053C42.7262 19.7213 43.3502 19.5053 44.0222 19.5053C45.8102 19.5053 46.9142 20.7893 46.9142 22.3973C46.9142 24.1253 45.6902 25.3493 43.8902 25.3493ZM48.4263 20.9093C48.4263 18.2453 49.7343 16.4453 51.8703 16.4453C53.9943 16.4453 55.3023 18.2453 55.3023 20.9093C55.3023 23.5853 54.0183 25.3613 51.8703 25.3613C49.7103 25.3613 48.4263 23.5853 48.4263 20.9093ZM49.2783 20.9093C49.2783 23.1413 50.2263 24.5813 51.8703 24.5813C53.5143 24.5813 54.4623 23.1413 54.4623 20.9093C54.4623 18.6653 53.5143 17.2373 51.8703 17.2373C50.2263 17.2373 49.2783 18.6653 49.2783 20.9093ZM56.9777 20.9093C56.9777 18.2453 58.2857 16.4453 60.4217 16.4453C62.5457 16.4453 63.8537 18.2453 63.8537 20.9093C63.8537 23.5853 62.5697 25.3613 60.4217 25.3613C58.2617 25.3613 56.9777 23.5853 56.9777 20.9093ZM57.8297 20.9093C57.8297 23.1413 58.7777 24.5813 60.4217 24.5813C62.0657 24.5813 63.0137 23.1413 63.0137 20.9093C63.0137 18.6653 62.0657 17.2373 60.4217 17.2373C58.7777 17.2373 57.8297 18.6653 57.8297 20.9093ZM66.7771 16.6133V21.7853L70.9171 16.6133H71.9491L69.0331 20.2493L71.9971 25.2053H70.9891L68.4691 20.9693L66.7771 23.0693V25.2053H65.9131V16.6133H66.7771Z" fill="#898989"/>
</svg>
